:SAMPLES-PER-SECOND 30
:FULLY-SPECIFIED
:DEGREES
461
root  -6.91968 37.5346 -3.03813 37.6189 -77.7458 -37.4676
RightUpLeg  11.6128 -1.09295 14.787
RightLeg  25.7105 3.54404 1.64529
RightFoot  -10.1988 -0.0522134 -0.238267
RightToes  7.56698e-010 0 -3.6325e-017
Spine  4.21613 3.33811 -0.67223
Spine1  7.57964 3.79426 -0.339614
HEad  -11.4949 -9.30305 18.5867
LeftShoulder1  3.29184 -9.31745 -19.1754
LeftArm  -25.1655 3.60485 -61.7117
LeftForeArm  -8.50734 -3.4248 -8.34945
LeftHand  -0.709292 0.261208 16.0829
RightShoulder  1.45498 2.7048 16.8333
RightArm  -32.2154 14.8474 47.1172
RightForeArm  148.41 64.5096 157.444
RightHand  -0.982025 2.45904 -14.6792
LeftUpLeg  -30.8297 -11.9658 -4.66121
LeftLeg  45.0356 18.622 19.2728
LeftFoot  1.35578 0.0712304 -0.21708
LeftToes  -3.13779e-010 -2.47553e-011 -5.36621e-011
462
root  -7.1269 36.3278 -3.27421 32.4505 -76.7145 -33.2283
RightUpLeg  12.4009 -0.36154 16.1075
RightLeg  29.0422 3.88139 2.07249
RightFoot  -19.331 -0.261985 -1.9561
RightToes  7.56698e-010 0 -3.6325e-017
Spine  4.86685 2.61873 -2.16734
Spine1  8.71716 2.91183 0.536488
HEad  -16.7502 -8.05175 18.5529
LeftShoulder1  3.37469 -9.00916 -20.5578
LeftArm  -18.5444 4.85048 -60.1398
LeftForeArm  -10.7009 -12.5093 -9.32396
LeftHand  -0.758022 0.28293 17.2792
RightShoulder  1.49989 2.87012 16.9317
RightArm  -33.3321 16.1849 45.8101
RightForeArm  155.284 53.1984 165.624
RightHand  -0.832008 1.42258 -14.2774
LeftUpLeg  -30.7881 -12.9879 -5.99223
LeftLeg  49.7917 18.2949 22.0695
LeftFoot  -8.54914 -0.0840665 4.73084
LeftToes  -3.13779e-010 -2.47553e-011 -5.36621e-011
463
root  -7.31443 35.9453 -3.47502 25.5921 -76.301 -27.4561
RightUpLeg  13.4507 -0.586258 17.1006
RightLeg  30.6354 0.736111 0.23455
RightFoot  -21.6696 -0.446105 -3.44111
RightToes  7.56698e-010 0 -3.6325e-017
Spine  5.36528 2.26163 -3.7631
Spine1  10.7555 2.5283 0.703229
HEad  -21.8416 -7.02505 19.1864
LeftShoulder1  3.46366 -9.03585 -21.2597
LeftArm  -6.96504 2.72115 -58.2899
LeftForeArm  -19.7571 -19.7382 -7.21646
LeftHand  -0.761588 0.963527 19.9237
RightShoulder  1.62091 3.22821 17.527
RightArm  -34.0765 15.0667 45.4715
RightForeArm  157.479 46.8994 168.392
RightHand  -0.70469 0.992174 -12.9175
LeftUpLeg  -30.8302 -11.4955 -7.24873
LeftLeg  52.0683 16.7087 21.9979
LeftFoot  -10.5067 -0.00124689 7.5801
LeftToes  -3.13779e-010 -2.47553e-011 -5.36621e-011
464
root  -7.46856 36.6018 -3.40887 23.4804 -77.8191 -25.2589
RightUpLeg  12.9536 -1.10689 15.7644
RightLeg  30.7754 -2.53853 -1.88966
RightFoot  -16.0556 -0.257786 -3.76516
RightToes  7.56698e-010 0 -3.6325e-017
Spine  5.09055 2.50567 -3.13883
Spine1  10.8286 3.47552 -1.84105
HEad  -21.9758 -6.88004 19.3458
LeftShoulder1  3.33078 -8.97894 -20.2471
LeftArm  -3.066 1.49245 -57.511
LeftForeArm  -21.3637 -24.6222 -6.14359
LeftHand  -0.814673 1.12208 22.0549
RightShoulder  1.69099 3.42351 17.8901
RightArm  -30.1525 10.4417 48.9322
RightForeArm  158.91 48.1944 167.932
RightHand  -0.639956 0.857766 -12.0164
LeftUpLeg  -29.6793 -6.72163 -8.20322
LeftLeg  48.6726 14.9861 17.9266
LeftFoot  -5.999 -0.277988 6.74471
LeftToes  -3.13779e-010 -2.47553e-011 -5.36621e-011
465
root  -7.48697 37.9447 -3.00721 25.6596 -80.6362 -26.9359
RightUpLeg  9.96825 -2.57548 11.5145
RightLeg  32.2895 0.556319 0.19247
RightFoot  -3.10205 0.0151586 -1.30487
RightToes  7.56698e-010 0 -3.6325e-017
Spine  5.64826 2.49763 -0.620302
Spine1  8.01981 4.31996 -5.62803
HEad  -17.8036 -6.16914 17.112
LeftShoulder1  3.03236 -8.44254 -18.8592
LeftArm  -5.721 3.75263 -57.3797
LeftForeArm  -14.3946 -30.6108 -7.43104
LeftHand  -0.995243 0.288749 22.5926
RightShoulder  1.65374 3.47975 17.0937
RightArm  -22.6328 5.3334 55.1751
RightForeArm  157.496 57.3372 163.192
RightHand  -0.791998 1.69616 -13.043
LeftUpLeg  -26.3378 -1.36051 -8.76181
LeftLeg  40.2179 13.6708 12.4908
LeftFoot  0.63036 -0.550756 5.10266
LeftToes  -3.13779e-010 -2.47553e-011 -5.36621e-011
466
root  -7.30906 39.3683 -2.4862 28.6572 -82.9081 -30.5619
RightUpLeg  5.84865 -5.29615 6.56929
RightLeg  35.9525 6.36489 4.67101
RightFoot  12.6001 -0.982401 4.88804
RightToes  7.56698e-010 0 -3.6325e-017
Spine  8.09706 1.93445 0.999795
Spine1  5.01847 3.71093 -6.7533
HEad  -14.5936 -3.82244 12.6526
LeftShoulder1  2.87653 -7.9729 -18.5161
LeftArm  -8.2337 7.68095 -56.9801
LeftForeArm  -6.76773 -38.8718 -9.43977
LeftHand  -1.18513 -0.696832 22.5597
RightShoulder  1.5389 3.46377 15.3427
RightArm  -16.4864 3.13648 59.4567
RightForeArm  144.312 70.4275 148.563
RightHand  -1.18821 3.46526 -15.7262
LeftUpLeg  -21.4269 2.89816 -8.43918
LeftLeg  30.3274 10.1039 6.72078
LeftFoot  7.59587 0.0257044 -0.0874896
LeftToes  -3.13779e-010 -2.47553e-011 -5.36621e-011
467
root  -7.07046 40.487 -2.05991 33.3654 -83.8906 -36.8348
RightUpLeg  2.26612 -8.31276 3.01469
RightLeg  39.4152 6.32004 5.21739
RightFoot  21.4285 -3.15123 11.4052
RightToes  7.56698e-010 0 -3.6325e-017
Spine  10.9415 1.33167 0.8249
Spine1  3.98073 2.28628 -4.0193
HEad  -14.6821 -0.875372 8.04396
LeftShoulder1  2.92865 -8.0613 -18.7934
LeftArm  -8.95957 10.5249 -56.1453
LeftForeArm  -1.15801 -48.0239 -12.5636
LeftHand  -1.27207 -1.18254 22.4461
RightShoulder  1.42033 3.27854 14.0895
RightArm  -12.5937 4.18871 59.683
RightForeArm  101.322 79.4818 104.084
RightHand  -1.52158 4.83203 -17.47
LeftUpLeg  -17.0772 6.64047 -6.13968
LeftLeg  23.815 2.96807 1.72328
LeftFoot  14.1961 2.97126 -13.3432
LeftToes  -3.13779e-010 -2.47553e-011 -5.36621e-011
468
root  -6.97254 41.3269 -1.68407 45.1624 -84.2839 -49.7322
RightUpLeg  -1.03048 -10.7964 0.672139
RightLeg  40.7482 1.68213 1.29782
RightFoot  20.163 -3.56986 13.069
RightToes  7.56698e-010 0 -3.6325e-017
Spine  12.6735 1.006 0.648582
Spine1  3.61307 1.10367 -0.128369
HEad  -15.5974 1.46426 4.77121
LeftShoulder1  2.96994 -8.29626 -18.6268
LeftArm  -7.97494 12.3453 -54.9876
LeftForeArm  4.32949 -57.6295 -17.7081
LeftHand  -1.25733 -1.40826 21.4783
RightShoulder  1.38698 3.08483 14.2102
RightArm  -10.3498 5.55665 57.5588
RightForeArm  53.0664 77.2361 50.231
RightHand  -1.54217 5.15124 -17.1525
LeftUpLeg  -14.5137 8.94449 -1.79567
LeftLeg  22.5278 -2.83469 -1.00857
LeftFoot  16.5853 6.26256 -25.5353
LeftToes  -3.13779e-010 -2.47553e-011 -5.36621e-011
469
root  -6.98193 41.9552 -1.26712 62.0824 -85.346 -67.0127
RightUpLeg  -4.01341 -12.0443 -2.1582
RightLeg  38.6679 -1.79178 -1.80311
RightFoot  15.1493 -2.47842 10.9552
RightToes  7.56698e-010 0 -3.6325e-017
Spine  13.6464 0.784287 0.313819
Spine1  2.7925 0.425678 2.06138
HEad  -15.6951 3.26182 3.0415
LeftShoulder1  2.89018 -8.19701 -18.1204
LeftArm  -6.55183 14.3196 -52.9885
LeftForeArm  15.5552 -67.8583 -28.022
LeftHand  -1.16018 -1.42087 19.8198
RightShoulder  1.43196 3.09598 14.9203
RightArm  -9.35216 5.16507 55.8675
RightForeArm  43.7064 72.5387 32.2835
RightHand  -1.46821 4.86951 -16.7919
LeftUpLeg  -13.1498 7.68136 2.51072
LeftLeg  25.2091 -1.88881 -0.567641
LeftFoot  12.2988 5.24511 -24.6329
LeftToes  -3.13779e-010 -2.47553e-011 -5.36621e-011
470
root  -7.05524 42.2892 -0.855048 93.5573 -86.6507 -99.1531
RightUpLeg  -5.50678 -11.8505 -5.82298
RightLeg  32.7959 -2.65849 -2.11537
RightFoot  13.2888 -1.96882 9.43312
RightToes  7.56698e-010 0 -3.6325e-017
Spine  14.2951 0.605464 -0.313878
Spine1  2.53964 0.127285 2.18917
HEad  -15.891 4.70893 2.51031
LeftShoulder1  2.77795 -7.89877 -17.7557
LeftArm  -5.87053 16.1668 -50.1089
LeftForeArm  42.4318 -76.7436 -52.7228
LeftHand  -1.00807 -0.903216 18.6607
RightShoulder  1.47687 3.21063 15.2496
RightArm  -9.12867 3.47699 55.5052
RightForeArm  42.087 69.0912 25.4538
RightHand  -1.48395 4.43267 -17.6839
LeftUpLeg  -10.8052 4.26328 5.95768
LeftLeg  27.8752 6.21727 3.86391
LeftFoot  7.26898 1.8385 -11.7301
LeftToes  -3.13779e-010 -2.47553e-011 -5.36621e-011
471
root  -7.23604 42.1839 -0.511149 138.017 -86.0484 -144.653
RightUpLeg  -5.73812 -9.73663 -8.95129
RightLeg  24.917 -2.44477 -1.45956
RightFoot  15.7761 -1.58854 7.10827
RightToes  7.56698e-010 0 -3.6325e-017
Spine  14.1175 0.615055 -0.5515
Spine1  3.40328 0.187619 1.46142
HEad  -16.0466 5.51026 2.59305
LeftShoulder1  2.65908 -7.56614 -17.3837
LeftArm  -6.088 17.2793 -47.2706
LeftForeArm  91.689 -79.3551 -100.694
LeftHand  -0.847004 -0.00797008 18.2487
RightShoulder  1.51191 3.31304 15.4496
RightArm  -9.09215 1.16344 55.0072
RightForeArm  38.6838 66.9168 22.7285
RightHand  -1.54835 4.28104 -18.7035
LeftUpLeg  -6.63375 0.8756 9.41168
LeftLeg  27.1457 14.4278 8.21167
LeftFoot  8.54699 -0.157288 0.525512
LeftToes  -3.13779e-010 -2.47553e-011 -5.36621e-011
